<?xml version="1.0" encoding="UTF-8"?><svg id="b" xmlns="http://www.w3.org/2000/svg" width="110.33mm" height="13.11mm" viewBox="0 0 312.75 37.16"><g id="c"><g><path d="M21.76,17.22s4.24-2.11,4.69-6.1C27.55,1.41,17.79,1.28,17.79,1.28H0V36.27H16.77s11.3,.5,11.04-10.75c-.14-6.04-6.04-8.29-6.04-8.29ZM6.93,7.11h7.65s5.18-.44,5.25,4.01c.06,3.85-5.25,4.01-5.25,4.01H6.93V7.11Zm7.65,23.33H6.93v-9.84h7.65s5.9-.35,6.03,4.92c.13,5.21-6.03,4.92-6.03,4.92Z" fill="#1a171b"/><path d="M104.16,1.28l-12.39,34.99h7.65l2.55-7.65h12.17l2.77,7.65h7.65L112.18,1.28h-8.02Zm-.36,21.87s4.44-14.45,4.37-14.58c-.06-.13,4.37,14.58,4.37,14.58h-8.75Z" fill="#1a171b"/><polygon points="32.08 36.27 57.95 36.27 57.95 30.44 39.36 30.44 39.36 20.23 55.77 20.23 55.77 14.4 39.36 14.4 39.36 7.11 57.95 7.11 57.95 1.28 32.08 1.28 32.08 36.27" fill="#1a171b"/><path d="M75.97,23.08h8.38c-.86,5.06-4.62,8.04-8.78,8.04-6.26,0-9.63-5.63-9.63-12.57s3.51-12.57,9.63-12.57c3.55,0,6.43,1.46,8.08,6.3h7.08C88.61,3.53,82.3,0,75.12,0c-10.4,0-16.57,8.41-16.61,18.58-.04,11.54,7.44,18.56,16.61,18.58,4.18,0,7.66-2.27,9.69-5.49l.3,4.64h5.7V17.42h-14.84v5.66Z" fill="#1a171b"/><path d="M164.19,27.42c-.59,1.35-1.35,2.53-2.29,3.54-.94,1.01-2.07,1.8-3.39,2.39-1.32,.59-2.77,.88-4.37,.88-2.31,0-4.29-.44-5.95-1.32s-3.02-2.04-4.07-3.49c-1.06-1.45-1.84-3.08-2.34-4.9-.5-1.82-.76-3.69-.76-5.61s.25-3.75,.76-5.58c.5-1.84,1.28-3.48,2.34-4.93,1.06-1.45,2.41-2.61,4.07-3.49s3.64-1.32,5.95-1.32c1.27,0,2.48,.19,3.63,.56,1.15,.37,2.21,.92,3.17,1.63,.96,.72,1.77,1.6,2.44,2.66,.67,1.06,1.15,2.25,1.44,3.59h3.32c-.23-1.82-.77-3.43-1.63-4.83-.86-1.4-1.93-2.58-3.22-3.54-1.29-.96-2.72-1.68-4.29-2.17s-3.19-.73-4.85-.73c-2.73,0-5.13,.5-7.19,1.49-2.07,.99-3.78,2.33-5.15,4-1.37,1.68-2.39,3.61-3.07,5.8-.68,2.2-1.02,4.48-1.02,6.85s.34,4.66,1.02,6.85c.68,2.19,1.71,4.13,3.07,5.8,1.37,1.68,3.08,3.01,5.15,4,2.06,.99,4.46,1.49,7.19,1.49,2.05,0,3.91-.33,5.58-.98,1.67-.65,3.13-1.58,4.37-2.8,1.24-1.22,2.24-2.69,3.02-4.41,.78-1.72,1.28-3.66,1.51-5.8h-3.32c-.16,1.56-.54,3.02-1.12,4.37Z" fill="#1a171b"/><path d="M192.82,14.37c-1.01-1.2-2.25-2.16-3.73-2.88-1.48-.71-3.18-1.07-5.1-1.07s-3.62,.36-5.1,1.07c-1.48,.72-2.72,1.67-3.73,2.88-1.01,1.2-1.77,2.62-2.29,4.24-.52,1.63-.78,3.33-.78,5.12s.26,3.54,.78,5.15c.52,1.61,1.28,3.02,2.29,4.22s2.25,2.16,3.73,2.88c1.48,.71,3.18,1.07,5.1,1.07s3.62-.36,5.1-1.07c1.48-.71,2.72-1.67,3.73-2.88,1.01-1.2,1.77-2.61,2.29-4.22,.52-1.61,.78-3.32,.78-5.15s-.26-3.5-.78-5.12c-.52-1.63-1.29-3.04-2.29-4.24Zm-.56,13.29c-.37,1.28-.93,2.43-1.66,3.44s-1.65,1.82-2.76,2.44c-1.11,.62-2.39,.93-3.85,.93s-2.75-.31-3.85-.93c-1.11-.62-2.02-1.43-2.76-2.44-.73-1.01-1.29-2.15-1.66-3.44-.37-1.28-.56-2.59-.56-3.93s.19-2.64,.56-3.93c.37-1.28,.93-2.43,1.66-3.44,.73-1.01,1.65-1.82,2.76-2.44,1.1-.62,2.39-.93,3.85-.93s2.75,.31,3.85,.93c1.11,.62,2.02,1.43,2.76,2.44,.73,1.01,1.28,2.15,1.66,3.44,.37,1.29,.56,2.59,.56,3.93s-.19,2.64-.56,3.93Z" fill="#1a171b"/><path d="M218.18,13.03c-.72-.83-1.67-1.47-2.85-1.93-1.19-.46-2.66-.68-4.41-.68-.88,0-1.74,.12-2.58,.37-.85,.24-1.63,.59-2.34,1.02-.72,.44-1.34,.98-1.88,1.61-.54,.63-.95,1.33-1.24,2.07h-.1v-4.34h-3.07v25.17h3.07v-14.68c.03-1.24,.23-2.38,.58-3.44,.36-1.06,.88-1.97,1.56-2.73,.68-.76,1.5-1.37,2.46-1.8,.96-.44,2.06-.66,3.29-.66s2.27,.2,3.1,.59c.83,.39,1.49,.93,1.97,1.61,.49,.68,.83,1.49,1.02,2.41s.29,1.93,.29,3v15.71h3.07V20.13c0-1.5-.15-2.85-.44-4.05-.29-1.2-.8-2.22-1.51-3.05Z" fill="#1a171b"/><path d="M243.64,13.03c-.72-.83-1.67-1.47-2.85-1.93-1.19-.46-2.66-.68-4.41-.68-.88,0-1.74,.12-2.58,.37-.85,.24-1.63,.59-2.34,1.02-.72,.44-1.34,.98-1.88,1.61-.54,.63-.95,1.33-1.24,2.07h-.1v-4.34h-3.07v25.17h3.07v-14.68c.03-1.24,.23-2.38,.59-3.44,.36-1.06,.88-1.97,1.56-2.73,.68-.76,1.5-1.37,2.46-1.8s2.06-.66,3.29-.66,2.27,.2,3.1,.59,1.49,.93,1.98,1.61c.49,.68,.83,1.49,1.02,2.41s.29,1.93,.29,3v15.71h3.07V20.13c0-1.5-.15-2.85-.44-4.05-.29-1.2-.8-2.22-1.51-3.05Z" fill="#1a171b"/><path d="M270.39,14.84c-.89-1.32-2.06-2.38-3.49-3.19-1.43-.81-3.15-1.22-5.17-1.22s-3.74,.38-5.17,1.15c-1.43,.76-2.6,1.77-3.51,3.02-.91,1.25-1.58,2.67-2.02,4.27-.44,1.59-.66,3.22-.66,4.88,0,1.79,.22,3.49,.66,5.1,.44,1.61,1.11,3.02,2.02,4.24,.91,1.22,2.08,2.19,3.51,2.9,1.43,.71,3.15,1.07,5.17,1.07,3.19,0,5.65-.79,7.39-2.37s2.93-3.8,3.58-6.66h-3.07c-.49,1.92-1.37,3.47-2.63,4.66-1.27,1.19-3.02,1.78-5.27,1.78-1.46,0-2.72-.31-3.78-.93-1.06-.62-1.91-1.4-2.56-2.34s-1.14-2-1.46-3.17c-.33-1.17-.49-2.32-.49-3.46h19.36c.06-1.76-.1-3.49-.49-5.19-.39-1.71-1.03-3.22-1.93-4.54Zm-16.95,7.15c.13-1.14,.4-2.25,.8-3.34,.41-1.09,.95-2.05,1.63-2.88s1.51-1.5,2.49-2c.98-.5,2.1-.76,3.37-.76s2.34,.25,3.32,.76c.98,.5,1.8,1.17,2.49,2s1.21,1.78,1.58,2.85,.58,2.19,.61,3.37h-16.29Z" fill="#1a171b"/><path d="M294.36,30.18c-.42,.88-.96,1.63-1.61,2.27-.65,.63-1.4,1.13-2.24,1.49s-1.74,.54-2.68,.54c-1.46,0-2.75-.31-3.85-.93-1.11-.62-2.02-1.43-2.76-2.44-.73-1.01-1.28-2.15-1.66-3.44-.37-1.28-.56-2.59-.56-3.93s.19-2.64,.56-3.93c.37-1.28,.93-2.43,1.66-3.44,.73-1.01,1.65-1.82,2.76-2.44,1.11-.62,2.39-.93,3.85-.93,2.02,0,3.6,.54,4.76,1.61,1.15,1.07,1.94,2.55,2.37,4.44h3.07c-.36-2.89-1.47-5.06-3.34-6.49-1.87-1.43-4.16-2.15-6.85-2.15-1.92,0-3.62,.36-5.1,1.07-1.48,.72-2.72,1.67-3.73,2.88-1.01,1.2-1.77,2.62-2.29,4.24-.52,1.63-.78,3.33-.78,5.12s.26,3.54,.78,5.15,1.28,3.02,2.29,4.22c1.01,1.2,2.25,2.16,3.73,2.88,1.48,.71,3.18,1.07,5.1,1.07,2.83,0,5.16-.86,7-2.58,1.84-1.72,2.97-4.11,3.39-7.17h-3.07c-.1,1.04-.36,2-.78,2.88Z" fill="#1a171b"/><path d="M312.75,13.74v-2.59h-5.12V3.59h-3.07v7.56h-4.39v2.59h4.39V30.96c-.03,2.15,.36,3.63,1.17,4.44,.81,.81,2.24,1.22,4.29,1.22,.46,0,.91-.02,1.37-.05,.46-.03,.91-.05,1.37-.05v-2.63c-.88,.1-1.76,.15-2.63,.15-1.11-.07-1.8-.38-2.07-.95-.28-.57-.42-1.36-.42-2.37V13.74h5.12Z" fill="#1a171b"/></g></g></svg>